<svg width="24" height="100%" viewBox="0 0 24 24" fill="#121212" xmlns="http://www.w3.org/2000/svg">
  <path fill-rule="evenodd" clip-rule="evenodd"
    d="M11.25 18C11.25 18.4142 11.5858 18.75 12 18.75C12.4142 18.75 12.75 18.4142 12.75 18L12.75 12.7499L18 12.75C18.4142 12.75 18.75 12.4142 18.75 12C18.75 11.5858 18.4142 11.25 18 11.25L12.75 11.2499L12.75 6C12.75 5.58579 12.4142 5.25 12 5.25C11.5857 5.25 11.25 5.58578 11.25 6L11.25 11.2499L6 11.2499C5.58578 11.2499 5.25 11.5857 5.25 11.9999C5.25 12.4141 5.58579 12.7499 6 12.7499L11.25 12.7499L11.25 18Z"
    fill="inherit" />
</svg>