<svg width="24" height="100%" viewBox="0 0 24 24" fill="#121212" xmlns="http://www.w3.org/2000/svg">
<path fill-rule="evenodd" clip-rule="evenodd" d="M18.4697 19.5302C18.7626 19.8231 19.2374 19.8231 19.5303 19.5302C19.8232 19.2373 19.8232 18.7624 19.5303 18.4696L13.0607 12L19.5303 5.53045C19.8232 5.23756 19.8232 4.76269 19.5303 4.4698C19.2374 4.17691 18.7626 4.17691 18.4697 4.4698L12.0001 10.9393L5.53034 4.46967C5.23745 4.17678 4.76257 4.17678 4.46968 4.46967C4.17679 4.76256 4.17679 5.23743 4.46968 5.53032L10.9394 12L4.46968 18.4697C4.17678 18.7626 4.17678 19.2374 4.46968 19.5303C4.76257 19.8232 5.23745 19.8232 5.53034 19.5303L12.0001 13.0607L18.4697 19.5302Z" fill="inherit"/>
</svg>
